<svg width="228" height="228" viewBox="0 0 228 228" fill="none" xmlns="http://www.w3.org/2000/svg">
<g clip-path="url(#clip0_5018_2)">
<path d="M114.269 227.457C176.953 227.457 227.769 176.642 227.769 113.957C227.769 51.273 176.953 0.457306 114.269 0.457306C51.5842 0.457306 0.768555 51.273 0.768555 113.957C0.768555 176.642 51.5842 227.457 114.269 227.457Z" fill="#F45D1F"/>
<path d="M132.177 88.6793C133.578 77.9371 138.326 53.0085 136.789 51.4739C133.714 49.9394 129.103 49.9394 126.029 51.4739C124.491 53.0085 121.417 59.1469 116.806 65.2853C114.21 68.7637 113.731 68.3544 112.194 65.2853C110.657 62.2161 107.583 54.5431 106.046 51.4739C102.971 49.9394 98.36 49.9394 95.2858 51.4739C93.7486 53.0085 87.7367 88.3382 84.5258 99.0463C79.9143 114.392 73.7658 131.273 61.4686 131.273C55.32 131.273 49.1715 125.134 49.1715 115.927C49.1715 106.719 53.8854 98.0914 64.5429 95.9771C72.2286 94.4425 72.2286 83.7004 64.5429 83.7004C58.3943 83.7004 49.1715 85.2349 41.4858 94.4425C33.8 103.65 31.9896 119.985 38.4115 132.807C43.0229 142.015 53.7829 146.619 61.4686 146.619C66.08 146.619 76.84 145.084 86.0629 131.273C92.2115 122.065 96.9937 105.219 98.36 99.0463C101.434 85.2349 102.971 74.4928 102.971 74.4928C102.971 74.4928 104.509 77.562 107.583 82.1658C110.657 86.7695 112.194 85.2349 115.269 82.1658C118.343 79.0966 122.954 74.4928 122.954 74.4928C122.954 74.4928 117.318 94.4766 118.343 108.254C119.88 128.579 136.789 134.717 149.086 134.717C164.457 134.717 171.904 130.045 173.441 128.51C174.978 126.976 177.54 120.94 176.515 114.699C174.978 105.492 167.292 99.3532 156.532 99.3532C148.847 99.3532 139.624 103.957 138.087 113.165C136.31 123.873 147.788 129.192 154.995 139.253C162.681 149.995 164.423 158.554 162.681 163.806C161.144 168.41 158.07 173.014 150.384 173.014C144.235 173.014 136.515 169.808 135.012 162.271C133.475 154.598 136.72 151.188 138.087 148.46C141.161 142.322 133.475 136.183 128.864 140.787C126.678 142.97 122.271 148.392 121.178 156.133C119.641 166.875 121.895 175.128 130.401 182.221C139.624 189.894 154.995 189.894 162.681 185.29C168.59 181.744 178.052 173.014 176.515 156.133C175.695 146.96 168.83 137.718 164.218 131.58C159.607 125.441 151.921 119.678 151.921 116.234C151.921 111.63 154.995 110.095 158.07 110.095C162.681 110.095 167.292 113.165 165.755 119.303C164.457 120.906 156.771 123.975 146.011 122.44C134.944 120.872 129.103 112.073 132.177 88.6793Z" fill="white"/>
</g>
<defs>
<clipPath id="clip0_5018_2">
<rect width="228" height="228" fill="white"/>
</clipPath>
</defs>
</svg>
